<svg id="レイヤー_1" data-name="レイヤー 1" xmlns="http://www.w3.org/2000/svg" xmlns:xlink="http://www.w3.org/1999/xlink" viewBox="0 0 509.39 452.28"><defs><style>.cls-1{fill:none;}.cls-2{clip-path:url(#clip-path);}.cls-3{fill:#fff;}.cls-4{fill:#eae5e3;}.cls-5{fill:#38a1db;}.cls-6{fill:#2f8cbf;}</style><clipPath id="clip-path"><rect class="cls-1" width="509.31" height="452.28"/></clipPath></defs><g class="cls-2"><polygon class="cls-3" points="326.68 33.78 370.33 0 506.07 99.8 460.41 136.28 326.68 33.78 326.68 33.78"/><polygon class="cls-4" points="463.72 200.8 509.39 164.33 506.07 99.8 460.41 136.28 463.72 200.8 463.72 200.8"/><path class="cls-4" d="M153.62,385.05c-13.36,10.38-27.47,7.41-37.85-.75S25.23,313.81,14.1,304.15c-5.65-4.9-9.18-9.23-11.31-14.44A36.44,36.44,0,0,0,0,303.87v27.46c0,16.34,3,23.75,14.1,33.4s91.28,72,101.67,80.15,24.49,11.13,37.85.75,49-37.12,49-37.12l-3.91-57.65c-9.58,7.2-34.4,25.88-45.07,34.19Z"/></g><path class="cls-3" d="M14.1,304.15c11.13,9.66,91.28,72,101.67,80.15s24.49,11.13,37.85.75c10.67-8.31,35.49-27,45.07-34.19l-.24-3.56L63.82,237S32.26,261.3,19.3,270.48C13,275,6.41,281,2.79,289.71c2.13,5.21,5.66,9.54,11.31,14.44Z"/><polygon class="cls-5" points="484.22 119.81 194.14 350.75 53.15 237.96 342.19 15.38 484.22 119.81 484.22 119.81"/><polygon class="cls-6" points="194.14 350.75 484.22 119.81 487.69 187.32 197.6 418.27 194.14 350.75 194.14 350.75"/></svg>