<svg version="1.1" viewBox="0 0 96 96" xmlns="http://www.w3.org/2000/svg" xmlns:xlink="http://www.w3.org/1999/xlink" id="Icons_FilmStrip" overflow="hidden"><path d=" M 70 20 L 62 20 L 62 14 L 70 14 L 70 20 Z M 70 35.5 L 62 35.5 L 62 29.5 L 70 29.5 L 70 35.5 Z M 70 51 L 62 51 L 62 45 L 70 45 L 70 51 Z M 70 66.5 L 62 66.5 L 62 60.5 L 70 60.5 L 70 66.5 Z M 70 82 L 62 82 L 62 76 L 70 76 L 70 82 Z M 33 20 L 25 20 L 25 14 L 33 14 L 33 20 Z M 33 35.5 L 25 35.5 L 25 29.5 L 33 29.5 L 33 35.5 Z M 33 51 L 25 51 L 25 45 L 33 45 L 33 51 Z M 33 66.5 L 25 66.5 L 25 60.5 L 33 60.5 L 33 66.5 Z M 33 82 L 25 82 L 25 76 L 33 76 L 33 82 Z M 20 8 L 20 88 L 76 88 L 76 8 L 20 8 Z" stroke="none" stroke-width="1" stroke-dasharray="" stroke-dashoffset="1" fill="#6C6C6C" fill-opacity="1"/></svg>