<svg width="259" height="259" xmlns="http://www.w3.org/2000/svg" xmlns:xlink="http://www.w3.org/1999/xlink" overflow="hidden"><defs><clipPath id="clip0"><rect x="416" y="373" width="259" height="259"/></clipPath></defs><g clip-path="url(#clip0)" transform="translate(-416 -373)"><path d="M626.438 426.958 580.573 426.958 580.573 413.469C580.573 402.947 572.209 394.583 561.688 394.583L529.312 394.583C518.791 394.583 510.427 402.947 510.427 413.469L510.427 426.958 464.562 426.958C458.627 426.958 453.771 431.815 453.771 437.75L453.771 448.542 637.229 448.542 637.229 437.75C637.229 431.815 632.373 426.958 626.438 426.958ZM526.615 413.469C526.615 411.85 527.694 410.771 529.312 410.771L561.688 410.771C563.306 410.771 564.385 411.85 564.385 413.469L564.385 426.958 526.615 426.958 526.615 413.469Z" fill="#707070"/><path d="M469.958 599.625C469.958 605.56 474.815 610.417 480.75 610.417L610.25 610.417C616.185 610.417 621.042 605.56 621.042 599.625L621.042 459.333 469.958 459.333 469.958 599.625ZM580.573 475.521 596.76 475.521 596.76 594.229 580.573 594.229 580.573 475.521ZM537.406 475.521 553.594 475.521 553.594 594.229 537.406 594.229 537.406 475.521ZM494.24 475.521 510.427 475.521 510.427 594.229 494.24 594.229 494.24 475.521Z" fill="#707070"/></g></svg>