<svg viewBox="0 0 96 96" xmlns="http://www.w3.org/2000/svg" xmlns:xlink="http://www.w3.org/1999/xlink" id="Icons_RaisedHand" overflow="hidden"><path d="M24.5 23C27 23 29 25 29 27.5L29 47C29 47.5 29.5 48 30 48 30.5 48 31 47.5 31 47L31 17.5C31 15 33 13 35.5 13 38 13 40 15 40 17.5L40 47C40 47.5 40.5 48 41 48 41.5 48 42 47.5 42 47L42 11.4 42 11.4C42 9 44 7 46.5 7 49 7 51 9 51 11.4L51 11.4 51 47C51 47.5 51.5 48 52 48 52.5 48 53 47.5 53 47L53 17.5C53 15 55 13 57.5 13 60 13 62 15 62 17.5L62 47 62 58.5 66.1 40C66.7 37.3 69.4 35.6 72.1 36.2 74.8 36.8 76.5 39.5 75.9 42.2L69.9 69.2C69.6 70.2 69 71.2 68 72L57 80.5 57 88 28 88 28 83C28 75.9 20 75.4 20 62 20 61.5 20 27.5 20 27.5 20 25 22 23 24.5 23Z" fill="#FFFFFF"/></svg>