<svg version="1.1" viewBox="0 0 96 96" xmlns="http://www.w3.org/2000/svg" xmlns:xlink="http://www.w3.org/1999/xlink" id="Icons_ChatBubble_LTR" overflow="hidden"><path d=" M 78.6 17 L 17.4 17 C 15.5112 17.011 13.989 18.5511 14 20.4399 C 14 20.4399 14 20.44 14 20.44 L 14 61.78 C 13.9889 63.6688 15.5111 65.2089 17.3999 65.22 C 17.3999 65.22 17.4 65.22 17.4 65.22 L 54.8 65.22 L 68.4 79 L 68.4 65.22 L 78.6 65.22 C 80.4888 65.209 82.011 63.6689 82 61.7801 C 82 61.7801 82 61.78 82 61.78 L 82 20.44 C 82.0111 18.5512 80.4889 17.0111 78.6001 17 C 78.6001 17 78.6 17 78.6 17 Z M 32 46 C 29.2386 46 27 43.7614 27 41 C 27 38.2386 29.2386 36 32 36 C 34.7614 36 37 38.2386 37 41 C 37 43.7614 34.7614 46 32 46 Z M 48 46 C 45.2386 46 43 43.7614 43 41 C 43 38.2386 45.2386 36 48 36 C 50.7614 36 53 38.2386 53 41 C 53 43.7614 50.7614 46 48 46 Z M 64 46 C 61.2386 46 59 43.7614 59 41 C 59 38.2386 61.2386 36 64 36 C 66.7614 36 69 38.2386 69 41 C 69 43.7614 66.7614 46 64 46 Z" stroke="none" stroke-width="1" stroke-dasharray="" stroke-dashoffset="1" fill="#6B6B6B" fill-opacity="1"/></svg>