<svg version="1.1" viewBox="0 0 96 96" xmlns="http://www.w3.org/2000/svg" xmlns:xlink="http://www.w3.org/1999/xlink" id="Icons_Images" overflow="hidden"><path d=" M 72 71.6 L 58.31 49.78 C 58.0651 49.3801 57.6289 49.1374 57.16 49.14 C 56.689 49.1398 56.251 49.3815 56 49.78 L 52 56.2 L 60.58 70.08 C 61.3061 71.178 61.4622 72.5574 61 73.79 L 70.7 73.79 C 71.4943 73.8297 72.1704 73.2179 72.21 72.4236 C 72.2245 72.1342 72.1513 71.8472 72 71.6 Z" stroke="none" stroke-width="1" stroke-dasharray="" stroke-dashoffset="1" fill="#6C6C6C" fill-opacity="1"/><path d=" M 57.1 71.73 L 35.35 36.34 C 35.0709 35.9795 34.6357 35.7749 34.18 35.79 L 34 35.79 L 33.82 35.79 C 33.3643 35.7749 32.9291 35.9795 32.65 36.34 L 10.9 71.73 C 10.5919 72.1611 10.5495 72.7279 10.79 73.2 C 11.0326 73.6278 11.5135 73.8623 12 73.79 L 56 73.79 C 56.4865 73.8623 56.9674 73.6278 57.21 73.2 C 57.4505 72.7279 57.4081 72.1611 57.1 71.73 Z M 37.64 52.92 L 34.18 56 L 30.72 52.92 L 25 56.38 L 34 41.79 L 42.76 56 Z" stroke="none" stroke-width="1" stroke-dasharray="" stroke-dashoffset="1" fill="#6C6C6C" fill-opacity="1"/><circle cx="21" cy="38" r="3" stroke="none" stroke-width="1" stroke-dasharray="" stroke-dashoffset="1" fill="#6C6C6C" fill-opacity="1"/><path d=" M 93 13 L 13 13 L 13 24 L 2 24 L 2 85.79 L 82 85.79 L 82 74.79 L 93 74.79 Z M 76 80 L 8 80 L 8 29.79 L 76 29.79 Z M 87 69 L 82 69 L 82 24 L 19 24 L 19 19 L 87 19 Z" stroke="none" stroke-width="1" stroke-dasharray="" stroke-dashoffset="1" fill="#6C6C6C" fill-opacity="1"/></svg>