<svg width="259" height="259" xmlns="http://www.w3.org/2000/svg" xmlns:xlink="http://www.w3.org/1999/xlink" overflow="hidden"><defs><clipPath id="clip0"><rect x="65" y="387" width="259" height="259"/></clipPath></defs><g clip-path="url(#clip0)" transform="translate(-65 -387)"><path d="M277.056 432.865 111.944 432.865C106.848 432.894 102.741 437.049 102.771 442.145 102.771 442.145 102.771 442.145 102.771 442.145L102.771 553.677C102.741 558.773 106.848 562.928 111.943 562.958 111.943 562.958 111.944 562.958 111.944 562.958L212.846 562.958 249.538 600.135 249.538 562.958 277.056 562.958C282.152 562.928 286.259 558.773 286.229 553.678 286.229 553.678 286.229 553.677 286.229 553.677L286.229 442.145C286.259 437.05 282.152 432.895 277.057 432.865 277.057 432.865 277.056 432.865 277.056 432.865ZM151.333 511.104C143.883 511.104 137.844 505.065 137.844 497.615 137.844 490.165 143.883 484.125 151.333 484.125 158.783 484.125 164.823 490.165 164.823 497.615 164.823 505.065 158.783 511.104 151.333 511.104ZM194.5 511.104C187.05 511.104 181.01 505.065 181.01 497.615 181.01 490.165 187.05 484.125 194.5 484.125 201.95 484.125 207.99 490.165 207.99 497.615 207.99 505.065 201.95 511.104 194.5 511.104ZM237.667 511.104C230.217 511.104 224.177 505.065 224.177 497.615 224.177 490.165 230.217 484.125 237.667 484.125 245.117 484.125 251.156 490.165 251.156 497.615 251.156 505.065 245.117 511.104 237.667 511.104Z"/></g></svg>